<svg width="240" height="240" viewBox="0 0 240 240" fill="none" xmlns="http://www.w3.org/2000/svg">
<path d="M162 172V0H78V172H162Z" fill="url(#paint0_linear)"/>
<path opacity="0.5" d="M131 233V232H130V233H131Z" fill="#1652F0"/>
<path opacity="0.5" d="M119 233V232H118V233H119Z" fill="#1652F0"/>
<path opacity="0.5" d="M107 233V232H106V233H107Z" fill="#1652F0"/>
<path opacity="0.5" d="M155 221V220H154V221H155Z" fill="#1652F0"/>
<path opacity="0.5" d="M143 221V220H142V221H143Z" fill="#1652F0"/>
<path opacity="0.5" d="M131 221V220H130V221H131Z" fill="#1652F0"/>
<path opacity="0.5" d="M119 221V220H118V221H119Z" fill="#1652F0"/>
<path opacity="0.5" d="M107 221V220H106V221H107Z" fill="#1652F0"/>
<path opacity="0.5" d="M179 209V208H178V209H179Z" fill="#1652F0"/>
<path opacity="0.5" d="M167 209V208H166V209H167Z" fill="#1652F0"/>
<path opacity="0.5" d="M155 209V208H154V209H155Z" fill="#1652F0"/>
<path opacity="0.5" d="M143 209V208H142V209H143Z" fill="#1652F0"/>
<path opacity="0.5" d="M131 209V208H130V209H131Z" fill="#1652F0"/>
<path opacity="0.5" d="M119 209V208H118V209H119Z" fill="#1652F0"/>
<path opacity="0.5" d="M107 209V208H106V209H107Z" fill="#1652F0"/>
<path opacity="0.5" d="M179 197V196H178V197H179Z" fill="#1652F0"/>
<path opacity="0.5" d="M167 197V196H166V197H167Z" fill="#1652F0"/>
<path opacity="0.5" d="M155 197V196H154V197H155Z" fill="#1652F0"/>
<path opacity="0.5" d="M143 197V196H142V197H143Z" fill="#1652F0"/>
<path opacity="0.5" d="M131 197V196H130V197H131Z" fill="#1652F0"/>
<path opacity="0.5" d="M119 197V196H118V197H119Z" fill="#1652F0"/>
<path opacity="0.5" d="M107 197V196H106V197H107Z" fill="#1652F0"/>
<path opacity="0.5" d="M179 185V184H178V185H179Z" fill="#1652F0"/>
<path opacity="0.5" d="M167 185V184H166V185H167Z" fill="#1652F0"/>
<path opacity="0.5" d="M155 185V184H154V185H155Z" fill="#1652F0"/>
<path opacity="0.5" d="M143 185V184H142V185H143Z" fill="#1652F0"/>
<path opacity="0.5" d="M131 185V184H130V185H131Z" fill="#1652F0"/>
<path opacity="0.5" d="M119 185V184H118V185H119Z" fill="#1652F0"/>
<path opacity="0.5" d="M107 185V184H106V185H107Z" fill="#1652F0"/>
<path opacity="0.5" d="M179 78V77H178V78H179Z" fill="#1652F0"/>
<path opacity="0.5" d="M167 78V77H166V78H167Z" fill="#1652F0"/>
<path opacity="0.5" d="M155 78V77H154V78H155Z" fill="#1652F0"/>
<path opacity="0.5" d="M143 78V77H142V78H143Z" fill="#1652F0"/>
<path opacity="0.5" d="M131 78V77H130V78H131Z" fill="#1652F0"/>
<path opacity="0.5" d="M119 78V77H118V78H119Z" fill="#1652F0"/>
<path opacity="0.5" d="M107 78V77H106V78H107Z" fill="#1652F0"/>
<path opacity="0.5" d="M179 66V65H178V66H179Z" fill="#1652F0"/>
<path opacity="0.5" d="M167 66V65H166V66H167Z" fill="#1652F0"/>
<path opacity="0.5" d="M155 66V65H154V66H155Z" fill="#1652F0"/>
<path opacity="0.5" d="M143 66V65H142V66H143Z" fill="#1652F0"/>
<path opacity="0.5" d="M131 66V65H130V66H131Z" fill="#1652F0"/>
<path opacity="0.5" d="M119 66V65H118V66H119Z" fill="#1652F0"/>
<path opacity="0.5" d="M107 66V65H106V66H107Z" fill="#1652F0"/>
<path opacity="0.5" d="M179 54V53H178V54H179Z" fill="#1652F0"/>
<path opacity="0.5" d="M167 54V53H166V54H167Z" fill="#1652F0"/>
<path opacity="0.5" d="M155 54V53H154V54H155Z" fill="#1652F0"/>
<path opacity="0.5" d="M143 54V53H142V54H143Z" fill="#1652F0"/>
<path opacity="0.5" d="M131 54V53H130V54H131Z" fill="#1652F0"/>
<path opacity="0.5" d="M119 54V53H118V54H119Z" fill="#1652F0"/>
<path opacity="0.5" d="M107 54V53H106V54H107Z" fill="#1652F0"/>
<path opacity="0.5" d="M179 42V41H178V42H179Z" fill="#1652F0"/>
<path opacity="0.5" d="M167 42V41H166V42H167Z" fill="#1652F0"/>
<path opacity="0.5" d="M155 42V41H154V42H155Z" fill="#1652F0"/>
<path opacity="0.5" d="M143 42V41H142V42H143Z" fill="#1652F0"/>
<path opacity="0.5" d="M131 42V41H130V42H131Z" fill="#1652F0"/>
<path opacity="0.5" d="M119 42V41H118V42H119Z" fill="#1652F0"/>
<path opacity="0.5" d="M107 42V41H106V42H107Z" fill="#1652F0"/>
<path opacity="0.5" d="M179 30V29H178V30H179Z" fill="#1652F0"/>
<path opacity="0.5" d="M155 30V29H154V30H155Z" fill="#1652F0"/>
<path opacity="0.5" d="M143 30V29H142V30H143Z" fill="#1652F0"/>
<path opacity="0.5" d="M131 30V29H130V30H131Z" fill="#1652F0"/>
<path opacity="0.5" d="M119 30V29H118V30H119Z" fill="#1652F0"/>
<path opacity="0.5" d="M107 30V29H106V30H107Z" fill="#1652F0"/>
<path opacity="0.5" d="M107 18V17H106V18H107Z" fill="#1652F0"/>
<path opacity="0.5" d="M107 6V5H106V6H107Z" fill="#1652F0"/>
<path opacity="0.5" d="M119 18V17H118V18H119Z" fill="#1652F0"/>
<g filter="url(#filter0_d)">
<rect x="20" y="48" width="200" height="144" fill="white"/>
</g>
<rect x="20" y="48" width="200" height="12" fill="#1652F0"/>
<path d="M131.81 142.45V137.66L126.82 136.41C126.77 135.92 126.71 135.43 126.63 134.94L131.12 132.45L129.88 127.83L124.74 127.92C124.56 127.46 124.37 127 124.18 126.55L127.87 122.98L125.48 118.84L120.54 120.25C120.25 119.85 119.95 119.47 119.64 119.08L122.29 114.67L118.91 111.29L114.5 113.94C114.12 113.63 113.73 113.33 113.33 113.04L114.74 108.1L110.6 105.71L107.03 109.4C106.58 109.2 106.12 109.01 105.66 108.84L105.75 103.7L101.13 102.46L98.6402 106.95C98.1502 106.88 97.6602 106.82 97.1702 106.76L95.9202 101.77H91.1302L89.8802 106.76C89.3902 106.81 88.9002 106.87 88.4102 106.95L85.9202 102.46L81.3002 103.7L81.3902 108.84C80.9302 109.02 80.4702 109.21 80.0202 109.4L76.4502 105.71L72.3102 108.1L73.7202 113.04C73.3202 113.33 72.9402 113.63 72.5502 113.94L68.1402 111.29L64.7602 114.67L67.4102 119.08C67.1002 119.46 66.8002 119.85 66.5102 120.25L61.5702 118.84L59.1802 122.98L62.8702 126.55C62.6702 127 62.4802 127.46 62.3102 127.92L57.1702 127.83L55.9302 132.45L60.4202 134.94C60.3502 135.43 60.2902 135.92 60.2302 136.41L55.2402 137.66V142.45L60.2302 143.7C60.2802 144.19 60.3402 144.68 60.4202 145.17L55.9302 147.66L57.1702 152.28L62.3102 152.19C62.4902 152.65 62.6802 153.11 62.8702 153.56L59.1802 157.13L61.5702 161.27L66.5102 159.86C66.8002 160.26 67.1002 160.64 67.4102 161.03L64.7602 165.44L68.1402 168.82L72.5502 166.17C72.9302 166.48 73.3202 166.78 73.7202 167.07L72.3102 172.01L76.4502 174.4L80.0202 170.71C80.4702 170.91 80.9302 171.1 81.3902 171.27L81.3002 176.41L85.9202 177.65L88.4102 173.16C88.9002 173.23 89.3902 173.29 89.8802 173.35L91.1302 178.34H95.9202L97.1702 173.35C97.6602 173.3 98.1502 173.24 98.6402 173.16L101.13 177.65L105.75 176.41L105.66 171.27C106.12 171.09 106.58 170.9 107.03 170.71L110.6 174.4L114.74 172.01L113.33 167.07C113.73 166.78 114.11 166.48 114.5 166.17L118.91 168.82L122.29 165.44L119.64 161.03C119.95 160.65 120.25 160.26 120.54 159.86L125.48 161.27L127.87 157.13L124.18 153.56C124.38 153.11 124.57 152.65 124.74 152.19L129.88 152.28L131.12 147.66L126.63 145.17C126.7 144.68 126.76 144.19 126.82 143.7L131.81 142.45ZM93.5302 168.77C77.6702 168.77 64.8202 155.92 64.8202 140.06C64.8202 124.2 77.6702 111.35 93.5302 111.35C109.39 111.35 122.24 124.2 122.24 140.06C122.24 155.92 109.39 168.77 93.5302 168.77ZM93.5302 115.6C80.0202 115.6 69.0702 126.55 69.0702 140.06C69.0702 153.57 80.0202 164.52 93.5302 164.52C107.04 164.52 117.99 153.57 117.99 140.06C117.99 126.55 107.04 115.6 93.5302 115.6ZM93.5302 132.61C89.4202 132.61 86.0902 135.94 86.0902 140.05C86.0902 144.16 89.4202 147.49 93.5302 147.49C97.6402 147.49 100.97 144.16 100.97 140.05C100.98 135.95 97.6402 132.61 93.5302 132.61ZM93.5302 144.31C91.1802 144.31 89.2802 142.41 89.2802 140.06C89.2802 137.71 91.1802 135.81 93.5302 135.81C95.8802 135.81 97.7802 137.71 97.7802 140.06C97.7902 142.41 95.8802 144.31 93.5302 144.31ZM93.5302 156.01C84.7202 156.01 77.5802 148.87 77.5802 140.06C77.5802 131.25 84.7202 124.11 93.5302 124.11C102.34 124.11 109.48 131.25 109.48 140.06C109.48 148.87 102.34 156.01 93.5302 156.01Z" fill="url(#paint1_linear)"/>
<path d="M141.38 89.62V88.4L136.47 88C136.44 87.62 136.39 87.24 136.32 86.87L140.96 85.2L140.65 84.03L135.8 84.91C135.67 84.55 135.53 84.2 135.36 83.86L139.41 81.05L138.8 80L134.34 82.1C134.12 81.79 133.89 81.48 133.64 81.19L136.82 77.43L135.96 76.57L132.2 79.75C131.91 79.5 131.61 79.27 131.29 79.05L133.39 74.59L132.34 73.98L129.53 78.03C129.19 77.87 128.84 77.72 128.48 77.59L129.36 72.74L128.19 72.43L126.52 77.07C126.15 77 125.77 76.95 125.39 76.92L124.98 72H123.76L123.35 76.91C122.97 76.94 122.59 76.99 122.22 77.06L120.55 72.42L119.38 72.73L120.26 77.58C119.9 77.71 119.55 77.85 119.21 78.02L116.4 73.97L115.35 74.58L117.45 79.04C117.14 79.26 116.83 79.49 116.54 79.74L112.78 76.56L111.92 77.42L115.1 81.18C114.85 81.47 114.62 81.77 114.4 82.09L109.94 79.99L109.33 81.04L113.38 83.85C113.22 84.19 113.07 84.54 112.94 84.9L108.09 84.02L107.78 85.19L112.42 86.86C112.35 87.23 112.3 87.61 112.27 87.99L107.36 88.4V89.62L112.27 90.03C112.3 90.41 112.35 90.79 112.42 91.16L107.78 92.83L108.09 94L112.94 93.12C113.07 93.48 113.21 93.83 113.38 94.17L109.33 96.98L109.94 98.03L114.4 95.93C114.62 96.24 114.85 96.55 115.1 96.84L111.92 100.6L112.78 101.46L116.54 98.28C116.83 98.53 117.13 98.76 117.45 98.98L115.35 103.44L116.4 104.05L119.21 100C119.55 100.16 119.9 100.31 120.26 100.44L119.38 105.29L120.55 105.6L122.22 100.96C122.59 101.03 122.97 101.08 123.35 101.11L123.76 106.02H124.98L125.39 101.11C125.77 101.08 126.15 101.03 126.52 100.96L128.19 105.6L129.36 105.29L128.48 100.44C128.84 100.31 129.19 100.17 129.53 100L132.34 104.05L133.39 103.44L131.29 98.98C131.6 98.76 131.91 98.53 132.2 98.28L135.96 101.46L136.82 100.6L133.64 96.84C133.89 96.55 134.12 96.25 134.34 95.93L138.8 98.03L139.41 96.98L135.36 94.17C135.52 93.83 135.67 93.48 135.8 93.12L140.65 94L140.96 92.83L136.32 91.16C136.39 90.79 136.44 90.41 136.47 90.03L141.38 89.62ZM124.37 97.52C119.67 97.52 115.86 93.71 115.86 89.01C115.86 84.31 119.67 80.5 124.37 80.5C129.07 80.5 132.88 84.31 132.88 89.01C132.88 93.71 129.07 97.52 124.37 97.52ZM124.37 84.76C122.02 84.76 120.12 86.66 120.12 89.01C120.12 91.36 122.02 93.26 124.37 93.26C126.72 93.26 128.62 91.36 128.62 89.01C128.62 86.66 126.72 84.76 124.37 84.76ZM124.37 91.14C123.2 91.14 122.24 90.19 122.24 89.01C122.24 87.84 123.19 86.88 124.37 86.88C125.55 86.88 126.5 87.83 126.5 89.01C126.5 90.19 125.54 91.14 124.37 91.14Z" fill="url(#paint2_linear)"/>
<path d="M196.68 119.93V117.65L192.06 116.99C191.98 115.79 191.83 114.62 191.6 113.47L195.89 111.64L195.3 109.44L190.67 110C190.29 108.87 189.83 107.77 189.31 106.71L192.98 103.83L191.84 101.86L187.51 103.6C186.85 102.61 186.12 101.68 185.34 100.78L188.14 97.0396L186.53 95.4296L182.79 98.2297C181.9 97.4497 180.96 96.7196 179.97 96.0596L181.71 91.7297L179.74 90.5896L176.86 94.2597C175.8 93.7397 174.7 93.2797 173.57 92.8997L174.13 88.2696L171.93 87.6796L170.1 91.9697C168.95 91.7397 167.77 91.5897 166.58 91.5097L165.92 86.8896H163.64L162.98 91.5097C161.78 91.5897 160.61 91.7397 159.46 91.9697L157.63 87.6796L155.43 88.2696L155.99 92.8997C154.86 93.2797 153.76 93.7397 152.7 94.2597L149.82 90.5896L147.85 91.7297L149.59 96.0596C148.6 96.7196 147.67 97.4497 146.77 98.2297L143.03 95.4296L141.42 97.0396L144.22 100.78C143.44 101.67 142.71 102.61 142.05 103.6L137.72 101.86L136.58 103.83L140.25 106.71C139.73 107.77 139.27 108.87 138.89 110L134.26 109.44L133.67 111.64L137.96 113.47C137.73 114.62 137.58 115.8 137.5 116.99L132.88 117.65V119.93L137.5 120.59C137.58 121.79 137.73 122.96 137.96 124.11L133.67 125.94L134.26 128.14L138.89 127.58C139.27 128.71 139.73 129.81 140.25 130.87L136.58 133.75L137.72 135.72L142.05 133.98C142.71 134.97 143.44 135.9 144.22 136.8L141.42 140.54L143.03 142.15L146.77 139.35C147.66 140.13 148.6 140.86 149.59 141.52L147.85 145.85L149.82 146.99L152.7 143.32C153.76 143.84 154.86 144.3 155.99 144.68L155.43 149.31L157.63 149.9L159.46 145.61C160.61 145.84 161.79 145.99 162.98 146.07L163.64 150.69H165.92L166.58 146.07C167.78 145.99 168.95 145.84 170.1 145.61L171.93 149.9L174.13 149.31L173.57 144.68C174.7 144.3 175.8 143.84 176.86 143.32L179.74 146.99L181.71 145.85L179.97 141.52C180.96 140.86 181.89 140.13 182.79 139.35L186.53 142.15L188.14 140.54L185.34 136.8C186.12 135.91 186.85 134.97 187.51 133.98L191.84 135.72L192.98 133.75L189.31 130.87C189.83 129.81 190.29 128.71 190.67 127.58L195.3 128.14L195.89 125.94L191.6 124.11C191.83 122.96 191.98 121.78 192.06 120.59L196.68 119.93ZM164.78 137.93C154.21 137.93 145.64 129.36 145.64 118.79C145.64 108.22 154.21 99.6497 164.78 99.6497C175.35 99.6497 183.92 108.22 183.92 118.79C183.92 129.36 175.35 137.93 164.78 137.93ZM164.78 108.15C158.91 108.15 154.15 112.91 154.15 118.78C154.15 124.65 158.91 129.41 164.78 129.41C170.65 129.41 175.41 124.65 175.41 118.78C175.41 112.92 170.65 108.15 164.78 108.15ZM164.78 125.17C161.26 125.17 158.4 122.31 158.4 118.79C158.4 115.27 161.26 112.41 164.78 112.41C168.3 112.41 171.16 115.27 171.16 118.79C171.16 122.31 168.3 125.17 164.78 125.17Z" fill="url(#paint3_linear)"/>
<path d="M70.1402 101.77V99.6395H65.6102C65.5302 99.3295 65.4402 99.0295 65.3202 98.7395L69.4102 97.0495L68.6002 95.0895L64.3202 96.8595C64.1402 96.6095 63.9602 96.3795 63.7602 96.1495L66.9402 92.9695L65.4402 91.4695L62.1702 94.7395C61.9202 94.5695 61.6602 94.4095 61.3902 94.2695L63.1002 90.1495L61.1402 89.3395L59.4102 93.5195C59.1002 93.4495 58.7902 93.3895 58.4702 93.3495V89.0195H56.3402V93.3495C55.9902 93.3895 55.6502 93.4595 55.3202 93.5395L53.7502 89.7495L51.7902 90.5595L53.3402 94.3095C53.0002 94.4895 52.6802 94.7095 52.3802 94.9295L49.6702 92.2195L48.1702 93.7195L50.8302 96.3795C50.5602 96.7095 50.3302 97.0495 50.1102 97.4195L46.8502 96.0695L46.0002 98.0395L49.2202 99.3695C49.0902 99.7995 49.0002 100.25 48.9402 100.71H45.6802V102.84H48.9402C49.0002 103.33 49.1002 103.8 49.2402 104.26L46.4102 105.43L47.2202 107.39L50.1202 106.19C50.3802 106.62 50.6802 107.02 51.0002 107.39L48.8802 109.51L50.3802 111.01L52.5902 108.8C53.0002 109.08 53.4402 109.32 53.8902 109.52L52.7302 112.32L54.6902 113.13L55.9302 110.13C56.4002 110.21 56.8702 110.26 57.3602 110.26V113.45H59.4902V110C59.9302 109.89 60.3602 109.74 60.7702 109.57L62.0902 112.75L64.0502 111.94L62.6102 108.47C62.9402 108.21 63.2402 107.94 63.5302 107.64L66.1702 110.28L67.6702 108.78L64.8002 105.91C64.9802 105.58 65.1402 105.24 65.2702 104.89L68.9802 106.43L69.7902 104.47L65.7902 102.81C65.8302 102.48 65.8602 102.14 65.8602 101.79H70.1402V101.77ZM57.3802 108.15C53.8602 108.15 51.0002 105.29 51.0002 101.77C51.0002 98.2495 53.8602 95.3895 57.3802 95.3895C60.9002 95.3895 63.7602 98.2495 63.7602 101.77C63.7602 105.3 60.9002 108.15 57.3802 108.15ZM60.5702 101.77C60.5702 103.53 59.1402 104.96 57.3802 104.96C55.6202 104.96 54.1902 103.53 54.1902 101.77C54.1902 100.01 55.6202 98.5795 57.3802 98.5795C59.1402 98.5795 60.5702 100.01 60.5702 101.77Z" fill="url(#paint4_linear)"/>
<path d="M93.5301 156.509C84.4601 156.509 77.0801 149.129 77.0801 140.059C77.0801 130.989 84.4601 123.609 93.5301 123.609C102.6 123.609 109.98 130.989 109.98 140.059C109.98 149.129 102.6 156.509 93.5301 156.509ZM93.5301 124.609C85.0101 124.609 78.0801 131.539 78.0801 140.059C78.0801 148.579 85.0101 155.509 93.5301 155.509C102.05 155.509 108.98 148.579 108.98 140.059C108.98 131.539 102.05 124.609 93.5301 124.609Z" fill="#D4EEFF"/>
<path d="M124.37 93.7695C121.75 93.7695 119.62 91.6395 119.62 89.0195C119.62 86.3995 121.75 84.2695 124.37 84.2695C126.99 84.2695 129.12 86.3995 129.12 89.0195C129.12 91.6395 126.99 93.7695 124.37 93.7695ZM124.37 85.2595C122.3 85.2595 120.62 86.9395 120.62 89.0095C120.62 91.0795 122.3 92.7595 124.37 92.7595C126.44 92.7595 128.12 91.0795 128.12 89.0095C128.12 86.9395 126.44 85.2595 124.37 85.2595Z" fill="#D4EEFF"/>
<path d="M57.3799 105.459C55.3499 105.459 53.6899 103.799 53.6899 101.769C53.6899 99.7391 55.3499 98.0791 57.3799 98.0791C59.4099 98.0791 61.0699 99.7391 61.0699 101.769C61.0699 103.799 59.4099 105.459 57.3799 105.459ZM57.3799 99.0791C55.8999 99.0791 54.6899 100.289 54.6899 101.769C54.6899 103.249 55.8999 104.459 57.3799 104.459C58.8599 104.459 60.0699 103.249 60.0699 101.769C60.0699 100.289 58.8599 99.0791 57.3799 99.0791Z" fill="#D4EEFF"/>
<path d="M60.2827 99.5485L59.748 100.394L101.783 126.99L102.318 126.144L60.2827 99.5485Z" fill="#D4EEFF"/>
<path d="M54.9989 103.021L54.1265 103.51L79.3339 148.499L80.2063 148.011L54.9989 103.021Z" fill="#D4EEFF"/>
<path d="M128.02 89.9399L99.5889 143.479L100.472 143.948L128.903 90.4089L128.02 89.9399Z" fill="#D4EEFF"/>
<path d="M119.712 88.7329L87.4575 134.962L88.2776 135.534L120.533 89.3051L119.712 88.7329Z" fill="#D4EEFF"/>
<path d="M122.593 92.336L121.902 93.0586L158.054 127.644L158.745 126.922L122.593 92.336Z" fill="#D4EEFF"/>
<path d="M126.736 84.8888L126.25 85.7627L169.394 109.761L169.88 108.888L126.736 84.8888Z" fill="#D4EEFF"/>
<path d="M93.5298 147.999C89.1498 147.999 85.5898 144.439 85.5898 140.059C85.5898 135.679 89.1498 132.119 93.5298 132.119C97.9098 132.119 101.47 135.679 101.47 140.059C101.48 144.439 97.9098 147.999 93.5298 147.999ZM93.5298 133.109C89.6998 133.109 86.5898 136.219 86.5898 140.049C86.5898 143.879 89.6998 146.999 93.5298 146.999C97.3598 146.999 100.47 143.879 100.47 140.059C100.47 136.239 97.3598 133.109 93.5298 133.109Z" fill="#D4EEFF"/>
<path d="M164.78 129.919C158.64 129.919 153.65 124.929 153.65 118.789C153.65 112.649 158.64 107.659 164.78 107.659C170.92 107.659 175.91 112.649 175.91 118.789C175.91 124.929 170.92 129.919 164.78 129.919ZM164.78 108.649C159.19 108.649 154.65 113.199 154.65 118.779C154.65 124.359 159.2 128.909 164.78 128.909C170.36 128.909 174.91 124.359 174.91 118.779C174.91 113.199 170.37 108.649 164.78 108.649Z" fill="#D4EEFF"/>
<path d="M27 55C27.5523 55 28 54.5523 28 54C28 53.4477 27.5523 53 27 53C26.4477 53 26 53.4477 26 54C26 54.5523 26.4477 55 27 55Z" fill="#D4EEFF"/>
<path d="M33 55C33.5523 55 34 54.5523 34 54C34 53.4477 33.5523 53 33 53C32.4477 53 32 53.4477 32 54C32 54.5523 32.4477 55 33 55Z" fill="#D4EEFF"/>
<path d="M39 55C39.5523 55 40 54.5523 40 54C40 53.4477 39.5523 53 39 53C38.4477 53 38 53.4477 38 54C38 54.5523 38.4477 55 39 55Z" fill="#D4EEFF"/>
<g filter="url(#filter1_d)">
<path d="M120 224C137.673 224 152 209.673 152 192C152 174.327 137.673 160 120 160C102.327 160 88 174.327 88 192C88 209.673 102.327 224 120 224Z" fill="white"/>
</g>
<path d="M120 160V161.5C136.79 161.5 150.47 175.16 150.5 191.95C150.53 208.77 136.87 222.47 120.05 222.5H120C103.21 222.5 89.53 208.84 89.5 192.05C89.47 175.24 103.13 161.53 119.95 161.5H120V160ZM120 160C119.98 160 119.96 160 119.94 160C102.27 160.03 87.97 174.38 88 192.06C88.03 209.71 102.35 224 120 224C120.02 224 120.04 224 120.06 224C137.73 223.97 152.03 209.62 152 191.94C151.97 174.29 137.65 160 120 160Z" fill="url(#paint5_linear)"/>
<path d="M120 220C135.464 220 148 207.464 148 192C148 176.536 135.464 164 120 164C104.536 164 92 176.536 92 192C92 207.464 104.536 220 120 220Z" fill="#1652F0"/>
<path d="M121 204H119V210H121V204Z" fill="#0B283F"/>
<path d="M123 210H117V221H123V210Z" fill="white"/>
<path d="M117 219.84C118 219.95 119.02 220 120.05 220C121.05 220 122.03 219.94 123 219.84V210H117V219.84Z" fill="url(#paint6_linear)"/>
<path d="M120 174C128.27 174 135 180.73 135 189C135 197.27 128.27 204 120 204C111.73 204 105 197.27 105 189C105 180.73 111.73 174 120 174ZM120 172C110.61 172 103 179.61 103 189C103 198.39 110.61 206 120 206C129.39 206 137 198.39 137 189C137 179.61 129.39 172 120 172Z" fill="white"/>
<path d="M120 202.16C127.268 202.16 133.16 196.268 133.16 189C133.16 181.732 127.268 175.84 120 175.84C112.732 175.84 106.84 181.732 106.84 189C106.84 196.268 112.732 202.16 120 202.16Z" fill="url(#paint7_linear)"/>
<defs>
<filter id="filter0_d" x="15" y="43" width="210" height="154" filterUnits="userSpaceOnUse" color-interpolation-filters="sRGB">
<feFlood flood-opacity="0" result="BackgroundImageFix"/>
<feColorMatrix in="SourceAlpha" type="matrix" values="0 0 0 0 0 0 0 0 0 0 0 0 0 0 0 0 0 0 127 0"/>
<feOffset/>
<feGaussianBlur stdDeviation="2.5"/>
<feColorMatrix type="matrix" values="0 0 0 0 0.0862745 0 0 0 0 0.321569 0 0 0 0 0.941176 0 0 0 0.35 0"/>
<feBlend mode="normal" in2="BackgroundImageFix" result="effect1_dropShadow"/>
<feBlend mode="normal" in="SourceGraphic" in2="effect1_dropShadow" result="shape"/>
</filter>
<filter id="filter1_d" x="83" y="155" width="74" height="74" filterUnits="userSpaceOnUse" color-interpolation-filters="sRGB">
<feFlood flood-opacity="0" result="BackgroundImageFix"/>
<feColorMatrix in="SourceAlpha" type="matrix" values="0 0 0 0 0 0 0 0 0 0 0 0 0 0 0 0 0 0 127 0"/>
<feOffset/>
<feGaussianBlur stdDeviation="2.5"/>
<feColorMatrix type="matrix" values="0 0 0 0 0.0862745 0 0 0 0 0.321569 0 0 0 0 0.941176 0 0 0 0.35 0"/>
<feBlend mode="normal" in2="BackgroundImageFix" result="effect1_dropShadow"/>
<feBlend mode="normal" in="SourceGraphic" in2="effect1_dropShadow" result="shape"/>
</filter>
<linearGradient id="paint0_linear" x1="120" y1="-0.2389" x2="120" y2="173.248" gradientUnits="userSpaceOnUse">
<stop stop-color="#D4EEFF" stop-opacity="0"/>
<stop offset="0.3063" stop-color="#D4EEFF"/>
<stop offset="1" stop-color="#D4EEFF" stop-opacity="0.3"/>
</linearGradient>
<linearGradient id="paint1_linear" x1="93.5323" y1="105.133" x2="93.5323" y2="193.195" gradientUnits="userSpaceOnUse">
<stop stop-color="#D4EEFF"/>
<stop offset="1" stop-color="white"/>
</linearGradient>
<linearGradient id="paint2_linear" x1="124.37" y1="74.646" x2="124.37" y2="119.296" gradientUnits="userSpaceOnUse">
<stop stop-color="#D4EEFF"/>
<stop offset="1" stop-color="white"/>
</linearGradient>
<linearGradient id="paint3_linear" x1="164.778" y1="88.4573" x2="164.778" y2="163.412" gradientUnits="userSpaceOnUse">
<stop stop-color="#D4EEFF"/>
<stop offset="1" stop-color="white"/>
</linearGradient>
<linearGradient id="paint4_linear" x1="57.9091" y1="89.5235" x2="57.9091" y2="114.816" gradientUnits="userSpaceOnUse">
<stop stop-color="#D4EEFF"/>
<stop offset="1" stop-color="white"/>
</linearGradient>
<linearGradient id="paint5_linear" x1="120" y1="160" x2="120" y2="224" gradientUnits="userSpaceOnUse">
<stop stop-color="white" stop-opacity="0"/>
<stop offset="1" stop-color="#99D6FF" stop-opacity="0.3"/>
</linearGradient>
<linearGradient id="paint6_linear" x1="120" y1="211.375" x2="120" y2="218.955" gradientUnits="userSpaceOnUse">
<stop stop-color="white"/>
<stop offset="1" stop-color="#D4EEFF"/>
</linearGradient>
<linearGradient id="paint7_linear" x1="115.9" y1="175.189" x2="123.043" y2="199.252" gradientUnits="userSpaceOnUse">
<stop stop-color="white" stop-opacity="0.6"/>
<stop offset="0.0742" stop-color="#DEE7FD" stop-opacity="0.5555"/>
<stop offset="0.2067" stop-color="#AAC0FA" stop-opacity="0.476"/>
<stop offset="0.3412" stop-color="#7C9EF7" stop-opacity="0.3953"/>
<stop offset="0.475" stop-color="#5783F4" stop-opacity="0.315"/>
<stop offset="0.6082" stop-color="#3B6DF2" stop-opacity="0.2351"/>
<stop offset="0.7405" stop-color="#265EF1" stop-opacity="0.1557"/>
<stop offset="0.8715" stop-color="#1A55F0" stop-opacity="0.0771"/>
<stop offset="1" stop-color="#1652F0" stop-opacity="0"/>
</linearGradient>
</defs>
</svg>
